<?xml version="1.0" encoding="UTF-8" standalone="no"?>
<!-- Created with Inkscape (http://www.inkscape.org/) -->

<svg
   version="1.1"
   id="svg9"
   xml:space="preserve"
   width="1066.6667"
   height="1066.6667"
   viewBox="0 0 1066.6667 1066.6667"
   sodipodi:docname="abstract-flower-publicdomainvectors.org.svg"
   inkscape:version="1.1.2 (b8e25be833, 2022-02-05)"
   xmlns:inkscape="http://www.inkscape.org/namespaces/inkscape"
   xmlns:sodipodi="http://sodipodi.sourceforge.net/DTD/sodipodi-0.dtd"
   xmlns="http://www.w3.org/2000/svg"
   xmlns:svg="http://www.w3.org/2000/svg"><defs
     id="defs13"><clipPath
       clipPathUnits="userSpaceOnUse"
       id="clipPath23"><path
         d="M 0,800 H 800 V 0 H 0 Z"
         id="path21" /></clipPath></defs><sodipodi:namedview
     id="namedview11"
     pagecolor="#ffffff"
     bordercolor="#666666"
     borderopacity="1.0"
     inkscape:pageshadow="2"
     inkscape:pageopacity="0.0"
     inkscape:pagecheckerboard="0"
     showgrid="false"
     inkscape:zoom="0.75843744"
     inkscape:cx="533.33337"
     inkscape:cy="533.33337"
     inkscape:window-width="1920"
     inkscape:window-height="1018"
     inkscape:window-x="-8"
     inkscape:window-y="-8"
     inkscape:window-maximized="1"
     inkscape:current-layer="g15" /><g
     id="g15"
     inkscape:groupmode="layer"
     inkscape:label="abstract-flower-publicdomainvectors.org"
     transform="matrix(1.3333333,0,0,-1.3333333,0,1066.6667)"><g
       id="g17"><g
         id="g19"
         clip-path="url(#clipPath23)"><path
           d="m 390.333,118.772 c 132.605,0 240.759,27.146 240.759,60.43 0,33.284 -108.154,60.431 -240.759,60.431 -132.604,0 -240.758,-27.147 -240.758,-60.431 0,-33.284 108.154,-60.43 240.758,-60.43"
           style="fill:#ffffff;fill-opacity:1;fill-rule:evenodd;stroke:none"
           id="path25" /><path
           d="m 390.333,237.359 c 127.97,0 231.708,-26.037 231.708,-58.157 0,-32.119 -103.738,-58.158 -231.708,-58.158 -127.967,0 -231.706,26.039 -231.706,58.158 0,32.12 103.739,58.157 231.706,58.157"
           style="fill:#fefefe;fill-opacity:1;fill-rule:evenodd;stroke:none"
           id="path27" /><path
           d="m 390.333,235.089 c 122.971,0 222.656,-25.021 222.656,-55.887 0,-30.865 -99.685,-55.887 -222.656,-55.887 -122.969,0 -222.655,25.022 -222.655,55.887 0,30.866 99.686,55.887 222.655,55.887"
           style="fill:#fdfdfd;fill-opacity:1;fill-rule:evenodd;stroke:none"
           id="path29" /><path
           d="m 390.333,232.816 c 117.971,0 213.605,-24.003 213.605,-53.614 0,-29.609 -95.634,-53.615 -213.605,-53.615 -117.97,0 -213.604,24.006 -213.604,53.615 0,29.611 95.634,53.614 213.604,53.614"
           style="fill:#fbfbfb;fill-opacity:1;fill-rule:evenodd;stroke:none"
           id="path31" /><path
           d="m 390.333,230.545 c 112.973,0 204.555,-22.987 204.555,-51.343 0,-28.356 -91.582,-51.343 -204.555,-51.343 -112.971,0 -204.553,22.987 -204.553,51.343 0,28.356 91.582,51.343 204.553,51.343"
           style="fill:#fafafa;fill-opacity:1;fill-rule:evenodd;stroke:none"
           id="path33" /><path
           d="m 390.333,228.274 c 107.974,0 195.503,-21.971 195.503,-49.072 0,-27.1 -87.529,-49.071 -195.503,-49.071 -107.973,0 -195.502,21.971 -195.502,49.071 0,27.101 87.529,49.072 195.502,49.072"
           style="fill:#f9f9f9;fill-opacity:1;fill-rule:evenodd;stroke:none"
           id="path35" /><path
           d="m 390.333,226.002 c 102.976,0 186.451,-20.953 186.451,-46.8 0,-25.848 -83.475,-46.798 -186.451,-46.798 -102.973,0 -186.45,20.95 -186.45,46.798 0,25.847 83.477,46.8 186.45,46.8"
           style="fill:#f8f8f8;fill-opacity:1;fill-rule:evenodd;stroke:none"
           id="path37" /><path
           d="m 390.333,223.73 c 97.977,0 177.401,-19.936 177.401,-44.528 0,-24.592 -79.424,-44.527 -177.401,-44.527 -97.974,0 -177.399,19.935 -177.399,44.527 0,24.592 79.425,44.528 177.399,44.528"
           style="fill:#f7f7f7;fill-opacity:1;fill-rule:evenodd;stroke:none"
           id="path39" /><path
           d="m 390.333,221.457 c 92.977,0 168.35,-18.918 168.35,-42.255 0,-23.338 -75.373,-42.255 -168.35,-42.255 -92.976,0 -168.349,18.917 -168.349,42.255 0,23.337 75.373,42.255 168.349,42.255"
           style="fill:#f5f5f5;fill-opacity:1;fill-rule:evenodd;stroke:none"
           id="path41" /><path
           d="m 390.333,219.187 c 87.979,0 159.298,-17.902 159.298,-39.985 0,-22.082 -71.319,-39.983 -159.298,-39.983 -87.977,0 -159.297,17.901 -159.297,39.983 0,22.083 71.32,39.985 159.297,39.985"
           style="fill:#f4f4f4;fill-opacity:1;fill-rule:evenodd;stroke:none"
           id="path43" /><path
           d="m 390.333,216.914 c 82.98,0 150.248,-16.884 150.248,-37.712 0,-20.829 -67.268,-37.713 -150.248,-37.713 -82.979,0 -150.246,16.884 -150.246,37.713 0,20.828 67.267,37.712 150.246,37.712"
           style="fill:#f3f3f3;fill-opacity:1;fill-rule:evenodd;stroke:none"
           id="path45" /><path
           d="m 390.333,214.643 c 77.981,0 141.196,-15.868 141.196,-35.441 0,-19.573 -63.215,-35.44 -141.196,-35.44 -77.979,0 -141.195,15.867 -141.195,35.44 0,19.573 63.216,35.441 141.195,35.441"
           style="fill:#f2f2f2;fill-opacity:1;fill-rule:evenodd;stroke:none"
           id="path47" /><path
           d="m 390.333,212.37 c 72.981,0 132.145,-14.85 132.145,-33.168 0,-18.318 -59.164,-33.169 -132.145,-33.169 -72.981,0 -132.144,14.851 -132.144,33.169 0,18.318 59.163,33.168 132.144,33.168"
           style="fill:#f1f1f1;fill-opacity:1;fill-rule:evenodd;stroke:none"
           id="path49" /><path
           d="m 390.333,210.1 c 67.983,0 123.095,-13.833 123.095,-30.898 0,-17.063 -55.112,-30.895 -123.095,-30.895 -67.982,0 -123.092,13.832 -123.092,30.895 0,17.065 55.11,30.898 123.092,30.898"
           style="fill:#f0f0f0;fill-opacity:1;fill-rule:evenodd;stroke:none"
           id="path51" /><path
           d="m 390.333,207.826 c 62.985,0 114.043,-12.815 114.043,-28.624 0,-15.809 -51.058,-28.624 -114.043,-28.624 -62.983,0 -114.041,12.815 -114.041,28.624 0,15.809 51.058,28.624 114.041,28.624"
           style="fill:#eeeeee;fill-opacity:1;fill-rule:evenodd;stroke:none"
           id="path53" /><path
           d="m 390.333,205.555 c 57.987,0 104.993,-11.798 104.993,-26.353 0,-14.554 -47.006,-26.352 -104.993,-26.352 -57.984,0 -104.991,11.798 -104.991,26.352 0,14.555 47.007,26.353 104.991,26.353"
           style="fill:#ededed;fill-opacity:1;fill-rule:evenodd;stroke:none"
           id="path55" /><path
           d="m 390.333,203.283 c 52.986,0 95.941,-10.781 95.941,-24.081 0,-13.299 -42.955,-24.081 -95.941,-24.081 -52.986,0 -95.939,10.782 -95.939,24.081 0,13.3 42.953,24.081 95.939,24.081"
           style="fill:#ececec;fill-opacity:1;fill-rule:evenodd;stroke:none"
           id="path57" /><path
           d="m 390.333,201.011 c 47.988,0 86.89,-9.763 86.89,-21.809 0,-12.045 -38.902,-21.809 -86.89,-21.809 -47.986,0 -86.888,9.764 -86.888,21.809 0,12.046 38.902,21.809 86.888,21.809"
           style="fill:#ebebeb;fill-opacity:1;fill-rule:evenodd;stroke:none"
           id="path59" /><path
           d="m 390.333,198.74 c 42.99,0 77.84,-8.748 77.84,-19.538 0,-10.79 -34.85,-19.538 -77.84,-19.538 -42.987,0 -77.837,8.748 -77.837,19.538 0,10.79 34.85,19.538 77.837,19.538"
           style="fill:#eaeaea;fill-opacity:1;fill-rule:evenodd;stroke:none"
           id="path61" /><path
           d="m 390.333,196.468 c 37.99,0 68.788,-7.732 68.788,-17.266 0,-9.535 -30.798,-17.264 -68.788,-17.264 -37.989,0 -68.786,7.729 -68.786,17.264 0,9.534 30.797,17.266 68.786,17.266"
           style="fill:#e8e8e8;fill-opacity:1;fill-rule:evenodd;stroke:none"
           id="path63" /><path
           d="m 390.333,194.196 c 32.992,0 59.736,-6.713 59.736,-14.994 0,-8.279 -26.744,-14.993 -59.736,-14.993 -32.989,0 -59.735,6.714 -59.735,14.993 0,8.281 26.746,14.994 59.735,14.994"
           style="fill:#e7e7e7;fill-opacity:1;fill-rule:evenodd;stroke:none"
           id="path65" /><path
           d="m 390.333,166.48 c 27.917,0 50.687,5.715 50.687,12.722 0,7.007 -22.77,12.721 -50.687,12.721 -27.916,0 -50.684,-5.714 -50.684,-12.721 0,-7.007 22.768,-12.722 50.684,-12.722"
           style="fill:#e6e6e6;fill-opacity:1;fill-rule:evenodd;stroke:none"
           id="path67" /><path
           d="m 711.216,563.624 c -23.334,-59.582 -69.98,-109.93 -133.805,-136.254 -63.826,-26.325 -132.403,-23.501 -190.955,2.307 23.333,59.581 69.981,109.928 133.806,136.252 63.826,26.325 132.403,23.502 190.954,-2.305"
           style="fill:#a6a6a6;fill-opacity:1;fill-rule:evenodd;stroke:none"
           id="path69" /><path
           d="m 401.65,423.581 c -5.129,1.864 -10.2,3.895 -15.194,6.096 23.333,59.58 69.981,109.928 133.806,136.253 12.466,5.141 25.111,9.165 37.827,12.128 -5.977,-23.674 -16.073,-46.382 -30.109,-67.102 -29.917,-44.169 -74.845,-75.091 -126.33,-87.375"
           style="fill:#999999;fill-opacity:1;fill-rule:evenodd;stroke:none"
           id="path71" /><path
           d="m 711.216,563.624 c -3.972,-10.142 -8.619,-20.014 -13.912,-29.547 -25.785,-17.858 -55.083,-33.904 -87.151,-47.13 -75.649,-31.202 -151.45,-40.473 -211.04,-30.008 25.712,47.504 67.323,86.79 121.149,108.99 63.826,26.325 132.403,23.502 190.954,-2.305"
           style="fill:#bdbdbd;fill-opacity:1;fill-rule:evenodd;stroke:none"
           id="path73" /><path
           d="m 470.214,453.489 c -25.334,-1.562 -49.302,-0.378 -71.101,3.45 25.712,47.502 67.323,86.79 121.149,108.991 12.466,5.141 25.111,9.165 37.827,12.128 -5.977,-23.674 -16.073,-46.382 -30.109,-67.102 -15.582,-23.003 -35.236,-42.412 -57.766,-57.467"
           style="fill:#a6a6a6;fill-opacity:1;fill-rule:evenodd;stroke:none"
           id="path75" /><path
           d="M 711.216,563.624 C 690.394,510.456 651.008,464.643 597.418,436.69 c -58.131,-7.85 -119.127,20.334 -160.027,72.764 22.7,23.694 50.586,43.16 82.871,56.475 63.826,26.325 132.403,23.502 190.954,-2.305"
           style="fill:#bdbdbd;fill-opacity:1;fill-rule:evenodd;stroke:none"
           id="path77" /><path
           d="m 711.216,563.624 c -3.972,-10.143 -8.621,-20.015 -13.913,-29.548 -25.784,-17.857 -55.083,-33.904 -87.15,-47.129 -37.639,-15.525 -75.314,-25.616 -111.012,-30.553 -23.064,12.633 -44.247,30.624 -61.75,53.06 22.7,23.694 50.586,43.16 82.871,56.475 63.826,26.325 132.403,23.502 190.954,-2.305"
           style="fill:#cccccc;fill-opacity:1;fill-rule:evenodd;stroke:none"
           id="path79" /><path
           d="m 485.437,464.678 c -17.749,11.782 -34.073,26.862 -48.046,44.775 22.7,23.695 50.586,43.161 82.871,56.477 12.466,5.141 25.111,9.165 37.827,12.128 -5.977,-23.674 -16.073,-46.382 -30.109,-67.102 -11.959,-17.659 -26.324,-33.196 -42.543,-46.278"
           style="fill:#bdbdbd;fill-opacity:1;fill-rule:evenodd;stroke:none"
           id="path81" /><path
           d="M 543.232,771.559 C 568.589,707.948 568.978,634.498 538.376,567.248 507.773,499.997 452.14,452.041 387.522,429.371 c -25.355,63.609 -25.744,137.061 4.858,204.311 30.601,67.251 86.236,115.208 150.852,137.877"
           style="fill:#ff6666;fill-opacity:1;fill-rule:evenodd;stroke:none"
           id="path83" /><path
           d="m 403.85,435.723 c -5.372,-2.296 -10.815,-4.419 -16.328,-6.352 -25.355,63.609 -25.744,137.061 4.858,204.311 5.976,13.134 12.911,25.527 20.678,37.145 12.649,-22.866 21.37,-47.99 25.564,-74.441 8.939,-56.388 -3.539,-113.407 -34.772,-160.663"
           style="fill:#ff5252;fill-opacity:1;fill-rule:evenodd;stroke:none"
           id="path85" /><path
           d="m 543.232,771.559 c 4.317,-10.827 7.908,-21.939 10.747,-33.256 -7.08,-32.811 -18.229,-66.777 -33.604,-100.566 -36.271,-79.709 -88.703,-142.4 -142.906,-177.811 -14.662,55.915 -10.897,117.04 14.911,173.756 30.601,67.251 86.236,115.208 150.852,137.877"
           style="fill:#ff7f7f;fill-opacity:1;fill-rule:evenodd;stroke:none"
           id="path87" /><path
           d="m 435.532,509.239 c -18.646,-19.751 -38.237,-36.359 -58.063,-49.311 -14.662,55.913 -10.897,117.038 14.911,173.754 5.976,13.134 12.911,25.527 20.678,37.145 12.649,-22.866 21.37,-47.99 25.564,-74.441 4.655,-29.368 3.497,-58.907 -3.09,-87.147"
           style="fill:#ff6666;fill-opacity:1;fill-rule:evenodd;stroke:none"
           id="path89" /><path
           d="m 543.232,771.559 c 22.626,-56.763 25.369,-121.36 3.956,-182.395 -39.667,-48.653 -107.931,-71.255 -178.232,-60.217 0.399,35.114 7.943,70.717 23.424,104.735 30.601,67.251 86.236,115.208 150.852,137.877"
           style="fill:#ff7f7f;fill-opacity:1;fill-rule:evenodd;stroke:none"
           id="path91" /><path
           d="m 543.232,771.559 c 4.317,-10.828 7.908,-21.94 10.746,-33.258 -7.08,-32.81 -18.229,-66.776 -33.603,-100.564 -18.047,-39.659 -40.097,-75.1 -64.371,-105.069 -27.257,-7.003 -56.964,-8.444 -87.048,-3.721 0.399,35.114 7.943,70.717 23.424,104.735 30.601,67.251 86.236,115.208 150.852,137.877"
           style="fill:#ff8f8f;fill-opacity:1;fill-rule:evenodd;stroke:none"
           id="path93" /><path
           d="m 439.239,529.117 c -22.482,-3.782 -46.262,-3.942 -70.283,-0.17 0.399,35.114 7.943,70.717 23.424,104.735 5.976,13.134 12.911,25.527 20.678,37.145 12.649,-22.866 21.37,-47.99 25.564,-74.441 3.574,-22.544 3.72,-45.187 0.617,-67.269"
           style="fill:#ff7f7f;fill-opacity:1;fill-rule:evenodd;stroke:none"
           id="path95" /><path
           d="m 285.856,766.262 c 56.932,-29.209 102.331,-80.683 122.103,-146.832 19.77,-66.15 10.064,-134.095 -21.503,-189.754 -56.932,29.208 -102.331,80.683 -122.102,146.832 -19.772,66.149 -10.066,134.094 21.502,189.754"
           style="fill:#7d7d24;fill-opacity:1;fill-rule:evenodd;stroke:none"
           id="path97" /><path
           d="m 394.049,444.181 c -2.372,-4.919 -4.901,-9.757 -7.593,-14.504 -56.932,29.208 -102.331,80.682 -122.102,146.831 -3.862,12.919 -6.593,25.906 -8.263,38.857 22.953,-8.328 44.531,-20.658 63.734,-36.706 40.936,-34.209 67.182,-82.019 74.224,-134.478"
           style="fill:#6e6e1a;fill-opacity:1;fill-rule:evenodd;stroke:none"
           id="path99" /><path
           d="m 285.856,766.262 c 9.69,-4.971 19.045,-10.59 27.997,-16.813 15.173,-27.45 28.191,-58.215 38.126,-91.45 23.433,-78.404 25.033,-154.753 8.626,-212.986 -44.675,30.359 -79.578,75.708 -96.251,131.495 -19.772,66.149 -10.066,134.094 21.502,189.754"
           style="fill:#999933;fill-opacity:1;fill-rule:evenodd;stroke:none"
           id="path101" /><path
           d="m 371.191,515.404 c -0.996,-25.362 -4.585,-49.09 -10.586,-70.391 -44.675,30.359 -79.578,75.708 -96.251,131.495 -3.862,12.919 -6.593,25.906 -8.263,38.857 22.953,-8.328 44.531,-20.658 63.734,-36.706 21.32,-17.817 38.652,-39.325 51.366,-63.255"
           style="fill:#7d7d24;fill-opacity:1;fill-rule:evenodd;stroke:none"
           id="path103" /><path
           d="m 285.856,766.262 c 50.803,-26.065 92.421,-69.859 114.843,-125.989 1.961,-58.625 -32.215,-116.477 -88.492,-151.896 -21.291,24.968 -37.853,54.671 -47.853,88.131 -19.772,66.149 -10.066,134.094 21.502,189.754"
           style="fill:#999933;fill-opacity:1;fill-rule:evenodd;stroke:none"
           id="path105" /><path
           d="m 285.856,766.262 c 9.69,-4.971 19.045,-10.591 27.998,-16.815 15.172,-27.45 28.191,-58.213 38.125,-91.448 11.659,-39.01 17.909,-77.508 19.23,-113.522 -14.89,-21.675 -34.918,-40.942 -59.002,-56.1 -21.291,24.968 -37.853,54.671 -47.853,88.131 -19.772,66.149 -10.066,134.094 21.502,189.754"
           style="fill:#b8b84d;fill-opacity:1;fill-rule:evenodd;stroke:none"
           id="path107" /><path
           d="m 361.587,531.677 c -13.507,-16.476 -30.151,-31.198 -49.38,-43.3 -21.291,24.968 -37.853,54.671 -47.853,88.131 -3.862,12.919 -6.593,25.906 -8.263,38.857 22.953,-8.328 44.531,-20.658 63.734,-36.706 16.365,-13.677 30.38,-29.53 41.762,-46.982"
           style="fill:#999933;fill-opacity:1;fill-rule:evenodd;stroke:none"
           id="path109" /><path
           d="m 118.668,604.751 c 56.776,13.134 118.614,3.997 171.242,-30.411 52.628,-34.408 85.802,-87.387 96.546,-144.664 -56.776,-13.133 -118.614,-3.995 -171.242,30.411 -52.629,34.408 -85.802,87.388 -96.546,144.664"
           style="fill:#990099;fill-opacity:1;fill-rule:evenodd;stroke:none"
           id="path111" /><path
           d="m 383.215,444.229 c 1.24,-4.814 2.325,-9.666 3.241,-14.553 -56.776,-13.133 -118.614,-3.995 -171.242,30.411 -10.278,6.721 -19.811,14.151 -28.584,22.181 20.866,7.695 43.125,11.795 65.915,11.913 48.586,0.253 94.944,-17.59 130.67,-49.952"
           style="fill:#850085;fill-opacity:1;fill-rule:evenodd;stroke:none"
           id="path113" /><path
           d="m 118.668,604.751 c 9.664,2.236 19.474,3.825 29.359,4.755 26.689,-10.184 53.826,-23.938 80.268,-41.226 62.378,-40.781 108.357,-92.966 131.161,-143.125 -48.925,-5.13 -99.858,5.914 -144.242,34.932 -52.629,34.408 -85.802,87.388 -96.546,144.664"
           style="fill:#ba00ba;fill-opacity:1;fill-rule:evenodd;stroke:none"
           id="path115" /><path
           d="m 325.457,480.354 c 14.211,-18.232 25.657,-36.85 33.999,-55.199 -48.924,-5.13 -99.858,5.914 -144.242,34.932 -10.278,6.721 -19.811,14.151 -28.584,22.181 20.866,7.695 43.125,11.795 65.915,11.913 25.305,0.132 50.004,-4.647 72.912,-13.827"
           style="fill:#990099;fill-opacity:1;fill-rule:evenodd;stroke:none"
           id="path117" /><path
           d="m 118.668,604.751 c 50.664,11.719 105.358,5.705 153.942,-20.175 35.815,-39.638 46.034,-99.973 27.69,-157.688 -29.488,4.861 -58.466,15.795 -85.086,33.199 -52.629,34.408 -85.802,87.388 -96.546,144.664"
           style="fill:#ba00ba;fill-opacity:1;fill-rule:evenodd;stroke:none"
           id="path119" /><path
           d="m 118.668,604.751 c 9.664,2.236 19.475,3.825 29.362,4.753 26.687,-10.182 53.823,-23.937 80.265,-41.224 31.036,-20.292 58.007,-43.405 80.09,-67.687 2.379,-23.83 -0.237,-49.008 -8.085,-73.705 -29.488,4.861 -58.466,15.795 -85.086,33.199 -52.629,34.408 -85.802,87.388 -96.546,144.664"
           style="fill:#d600d6;fill-opacity:1;fill-rule:evenodd;stroke:none"
           id="path121" /><path
           d="m 309.213,486.032 c 0.283,-19.4 -2.647,-39.425 -8.913,-59.144 -29.488,4.861 -58.466,15.795 -85.086,33.199 -10.278,6.721 -19.811,14.151 -28.584,22.181 20.866,7.695 43.125,11.795 65.915,11.913 19.426,0.102 38.492,-2.693 56.668,-8.149"
           style="fill:#ba00ba;fill-opacity:1;fill-rule:evenodd;stroke:none"
           id="path123" /><path
           d="m 103.504,382.256 c 29.437,43.176 75.751,74.751 131.36,84.069 55.609,9.321 109.687,-5.428 151.592,-36.648 -29.438,-43.178 -75.751,-74.754 -131.36,-84.073 -55.608,-9.319 -109.685,5.43 -151.592,36.652"
           style="fill:#e65c00;fill-opacity:1;fill-rule:evenodd;stroke:none"
           id="path125" /><path
           d="m 375.471,437.298 c 3.745,-2.418 7.41,-4.96 10.985,-7.622 -29.438,-43.177 -75.752,-74.753 -131.36,-84.072 -10.86,-1.821 -21.66,-2.718 -32.324,-2.759 9.073,17.758 21.252,33.993 36.202,47.929 31.869,29.707 73.272,46.132 116.497,46.524"
           style="fill:#d15400;fill-opacity:1;fill-rule:evenodd;stroke:none"
           id="path127" /><path
           d="m 103.504,382.256 c 5.011,7.347 10.511,14.357 16.461,20.983 23.783,9.515 50.031,16.949 77.973,21.63 65.909,11.046 127.943,4.608 173.471,-14.589 -29.129,-33.127 -69.415,-56.816 -116.313,-64.676 -55.608,-9.319 -109.685,5.43 -151.592,36.652"
           style="fill:#ff6600;fill-opacity:1;fill-rule:evenodd;stroke:none"
           id="path129" /><path
           d="m 315.437,425.991 c 20.454,-3.376 39.317,-8.687 55.972,-15.711 -29.129,-33.127 -69.415,-56.816 -116.313,-64.676 -10.86,-1.821 -21.66,-2.718 -32.324,-2.759 9.073,17.758 21.252,33.993 36.202,47.929 16.598,15.472 35.782,27.339 56.463,35.217"
           style="fill:#e65c00;fill-opacity:1;fill-rule:evenodd;stroke:none"
           id="path131" /><path
           d="m 103.504,382.256 c 26.269,38.526 65.975,67.817 113.734,80.299 47.706,-4.35 91.125,-37.907 114.127,-87.101 -22.392,-14.725 -48.14,-25.136 -76.269,-29.85 -55.608,-9.319 -109.685,5.43 -151.592,36.652"
           style="fill:#ff6600;fill-opacity:1;fill-rule:evenodd;stroke:none"
           id="path133" /><path
           d="m 103.504,382.256 c 5.011,7.347 10.512,14.36 16.464,20.984 23.781,9.514 50.029,16.948 77.97,21.629 32.792,5.497 64.623,6.661 93.942,4.082 16.057,-14.261 29.641,-32.445 39.485,-53.497 -22.392,-14.725 -48.14,-25.136 -76.269,-29.85 -55.608,-9.319 -109.685,5.43 -151.592,36.652"
           style="fill:#ff771c;fill-opacity:1;fill-rule:evenodd;stroke:none"
           id="path135" /><path
           d="m 301.278,419.857 c 11.983,-12.615 22.227,-27.594 30.087,-44.403 -22.392,-14.725 -48.14,-25.136 -76.269,-29.85 -10.86,-1.821 -21.66,-2.718 -32.324,-2.759 9.073,17.758 21.252,33.993 36.202,47.929 12.741,11.876 27.008,21.627 42.304,29.083"
           style="fill:#ff6600;fill-opacity:1;fill-rule:evenodd;stroke:none"
           id="path137" /><path
           d="m 210.874,227.907 c -4.344,48.572 10.354,98.775 44.937,138.433 34.583,39.656 82.318,61.049 131.031,63.355 4.343,-48.575 -10.355,-98.775 -44.938,-138.433 -34.583,-39.658 -82.317,-61.049 -131.03,-63.355"
           style="fill:#996633;fill-opacity:1;fill-rule:evenodd;stroke:none"
           id="path139" /><path
           d="m 374.405,428.685 c 4.134,0.474 8.282,0.813 12.437,1.01 4.343,-48.573 -10.356,-98.775 -44.938,-138.433 -6.754,-7.745 -14.011,-14.79 -21.677,-21.136 -3.974,18.181 -4.808,37.103 -2.28,56.008 5.386,40.3 25.519,76.668 56.458,102.551"
           style="fill:#855422;fill-opacity:1;fill-rule:evenodd;stroke:none"
           id="path141" /><path
           d="m 210.874,227.907 c -0.739,8.267 -0.926,16.581 -0.559,24.882 11.517,20.947 26.044,41.857 43.418,61.782 40.991,47.002 89.542,79.102 133.746,92.224 -1.387,-41.145 -16.41,-82.089 -45.575,-115.533 -34.583,-39.658 -82.317,-61.049 -131.03,-63.355"
           style="fill:#ab7844;fill-opacity:1;fill-rule:evenodd;stroke:none"
           id="path143" /><path
           d="m 337.807,384.973 c 16.75,9.68 33.502,17.023 49.672,21.822 -1.387,-41.143 -16.409,-82.089 -45.575,-115.533 -6.754,-7.745 -14.011,-14.79 -21.677,-21.136 -3.974,18.181 -4.808,37.103 -2.28,56.008 2.806,20.988 9.613,40.909 19.86,58.839"
           style="fill:#996633;fill-opacity:1;fill-rule:evenodd;stroke:none"
           id="path145" /><path
           d="m 210.874,227.907 c -3.876,43.344 7.411,87.985 34.459,125.273 36.981,25.119 88.167,26.634 133.893,4.781 -7.426,-23.88 -19.829,-46.64 -37.322,-66.699 -34.583,-39.658 -82.317,-61.049 -131.03,-63.355"
           style="fill:#ab7844;fill-opacity:1;fill-rule:evenodd;stroke:none"
           id="path147" /><path
           d="m 210.874,227.907 c -0.739,8.267 -0.925,16.581 -0.557,24.885 11.516,20.945 26.042,41.854 43.416,61.779 20.396,23.386 42.662,43.077 65.333,58.584 20.026,-0.772 40.593,-5.841 60.16,-15.194 -7.426,-23.88 -19.829,-46.64 -37.322,-66.699 -34.583,-39.658 -82.317,-61.049 -131.03,-63.355"
           style="fill:#bf8d5b;fill-opacity:1;fill-rule:evenodd;stroke:none"
           id="path149" /><path
           d="m 331.229,372.164 c 16.113,-2 32.375,-6.736 47.997,-14.203 -7.426,-23.88 -19.829,-46.64 -37.322,-66.699 -6.754,-7.745 -14.011,-14.79 -21.677,-21.136 -3.974,18.181 -4.808,37.103 -2.28,56.008 2.154,16.112 6.668,31.593 13.282,46.03"
           style="fill:#ab7844;fill-opacity:1;fill-rule:evenodd;stroke:none"
           id="path151" /><path
           d="m 400.671,186.199 c -33.807,28.913 -56.23,71.028 -58.962,118.946 -2.732,47.917 14.762,92.307 45.062,124.871 33.806,-28.911 56.231,-71.025 58.962,-118.943 2.733,-47.917 -14.761,-92.307 -45.062,-124.874"
           style="fill:#e3b600;fill-opacity:1;fill-rule:evenodd;stroke:none"
           id="path153" /><path
           d="m 379.304,421.428 c 2.394,2.946 4.883,5.809 7.467,8.588 33.806,-28.911 56.231,-71.025 58.962,-118.943 0.535,-9.357 0.293,-18.58 -0.662,-27.606 -14.183,9.323 -26.792,21.134 -37.198,35.075 -22.183,29.72 -32.243,66.276 -28.569,102.886"
           style="fill:#c9a100;fill-opacity:1;fill-rule:evenodd;stroke:none"
           id="path155" /><path
           d="m 400.671,186.199 c -5.753,4.923 -11.177,10.226 -16.231,15.876 -5.847,21.005 -9.703,43.904 -11.074,67.98 -3.238,56.795 7.961,108.687 28.423,145.432 25.331,-27.717 41.642,-64.002 43.944,-104.414 2.733,-47.917 -14.761,-92.307 -45.062,-124.874"
           style="fill:#ffcc00;fill-opacity:1;fill-rule:evenodd;stroke:none"
           id="path157" /><path
           d="m 383.307,369.583 c 4.752,16.993 10.997,32.463 18.482,45.904 25.329,-27.717 41.642,-64.002 43.944,-104.414 0.535,-9.357 0.293,-18.58 -0.662,-27.606 -14.183,9.323 -26.792,21.134 -37.198,35.075 -11.554,15.479 -19.816,32.811 -24.566,51.041"
           style="fill:#e3b600;fill-opacity:1;fill-rule:evenodd;stroke:none"
           id="path159" /><path
           d="m 400.671,186.199 c -30.167,25.801 -51.27,62.114 -57.405,103.68 8.103,39.965 40.521,73.594 84.279,88.496 10.383,-20.312 16.808,-43.062 18.188,-67.302 2.733,-47.917 -14.761,-92.307 -45.062,-124.874"
           style="fill:#ffcc00;fill-opacity:1;fill-rule:evenodd;stroke:none"
           id="path161" /><path
           d="m 400.671,186.199 c -5.753,4.923 -11.177,10.227 -16.231,15.877 -5.847,21.005 -9.703,43.904 -11.074,67.979 -1.612,28.257 0.354,55.299 5.253,79.869 13.557,12.265 30.201,22.073 48.926,28.451 10.383,-20.312 16.808,-43.062 18.188,-67.302 2.733,-47.917 -14.761,-92.307 -45.062,-124.874"
           style="fill:#ffd940;fill-opacity:1;fill-rule:evenodd;stroke:none"
           id="path163" /><path
           d="m 387.184,357.033 c 11.785,8.97 25.411,16.25 40.361,21.342 10.383,-20.312 16.808,-43.062 18.188,-67.302 0.535,-9.357 0.293,-18.58 -0.662,-27.606 -14.183,9.323 -26.792,21.134 -37.198,35.075 -8.868,11.882 -15.799,24.857 -20.689,38.491"
           style="fill:#ffcc00;fill-opacity:1;fill-rule:evenodd;stroke:none"
           id="path165" /><path
           d="m 555.898,273.013 c -41.956,-2.527 -84.839,11.395 -118.141,42.184 -33.302,30.79 -50.534,72.452 -51.301,114.479 41.957,2.525 84.843,-11.397 118.141,-42.186 33.3,-30.789 50.536,-72.451 51.301,-114.477"
           style="fill:#7cad1a;fill-opacity:1;fill-rule:evenodd;stroke:none"
           id="path167" /><path
           d="m 387.014,418.936 c -0.305,3.573 -0.493,7.156 -0.558,10.74 41.957,2.525 84.843,-11.397 118.141,-42.186 6.505,-6.012 12.393,-12.441 17.667,-19.206 -15.763,-2.968 -32.086,-3.213 -48.312,-0.559 -34.585,5.65 -65.413,23.905 -86.938,51.211"
           style="fill:#6e9e0e;fill-opacity:1;fill-rule:evenodd;stroke:none"
           id="path169" /><path
           d="m 555.898,273.013 c -7.139,-0.43 -14.309,-0.382 -21.452,0.142 -17.758,10.446 -35.408,23.488 -52.139,38.956 -39.47,36.493 -65.908,79.127 -76.106,117.54 35.413,-2.224 70.314,-16.193 98.396,-42.161 33.3,-30.789 50.536,-72.451 51.301,-114.477"
           style="fill:#8cbf26;fill-opacity:1;fill-rule:evenodd;stroke:none"
           id="path171" /><path
           d="m 423.757,386.309 c -7.918,14.674 -13.825,29.292 -17.555,43.342 35.412,-2.226 70.313,-16.193 98.395,-42.161 6.505,-6.012 12.393,-12.441 17.667,-19.206 -15.763,-2.968 -32.086,-3.213 -48.312,-0.559 -18.012,2.942 -35.005,9.305 -50.195,18.584"
           style="fill:#7cad1a;fill-opacity:1;fill-rule:evenodd;stroke:none"
           id="path173" /><path
           d="m 555.898,273.013 c -37.439,-2.253 -75.617,8.59 -107.066,32.829 -20.715,32.49 -20.738,76.628 -0.764,115.475 20.389,-6.997 39.685,-18.253 56.529,-33.827 33.3,-30.789 50.536,-72.451 51.301,-114.477"
           style="fill:#8cbf26;fill-opacity:1;fill-rule:evenodd;stroke:none"
           id="path175" /><path
           d="m 555.898,273.013 c -7.141,-0.43 -14.31,-0.382 -21.453,0.143 -17.758,10.447 -35.407,23.487 -52.138,38.955 -19.638,18.158 -36.047,37.834 -48.838,57.755 1.17,17.234 6.05,34.826 14.599,51.451 20.389,-6.997 39.685,-18.253 56.529,-33.827 33.3,-30.789 50.536,-72.451 51.301,-114.477"
           style="fill:#99cc33;fill-opacity:1;fill-rule:evenodd;stroke:none"
           id="path177" /><path
           d="m 434.628,380.321 c 2.127,13.832 6.614,27.724 13.44,40.996 20.389,-6.997 39.685,-18.253 56.529,-33.827 6.505,-6.012 12.393,-12.441 17.667,-19.206 -15.763,-2.968 -32.086,-3.213 -48.312,-0.559 -13.826,2.258 -27.051,6.535 -39.324,12.596"
           style="fill:#8cbf26;fill-opacity:1;fill-rule:evenodd;stroke:none"
           id="path179" /><path
           d="m 606.437,416.303 c -29.493,-27.235 -69.612,-42.868 -112.844,-40.241 -43.233,2.627 -81.161,23.008 -107.137,53.614 29.49,27.233 69.61,42.869 112.843,40.242 43.232,-2.63 81.161,-23.009 107.138,-53.615"
           style="fill:#336699;fill-opacity:1;fill-rule:evenodd;stroke:none"
           id="path181" /><path
           d="m 393.363,422.073 c -2.387,2.457 -4.691,4.992 -6.907,7.603 29.49,27.233 69.61,42.869 112.843,40.242 8.443,-0.515 16.682,-1.707 24.673,-3.52 -9.859,-11.723 -21.781,-21.772 -35.376,-29.622 -28.986,-16.731 -62.812,-21.875 -95.233,-14.703"
           style="fill:#285887;fill-opacity:1;fill-rule:evenodd;stroke:none"
           id="path183" /><path
           d="m 606.437,416.303 c -5.022,-4.637 -10.349,-8.934 -15.946,-12.864 -19.446,-3.013 -40.376,-4.043 -62.098,-2.723 -51.242,3.113 -96.562,18.646 -127.325,40.88 27.525,19.764 61.77,30.538 98.231,28.322 43.232,-2.63 81.161,-23.009 107.138,-53.615"
           style="fill:#447ab0;fill-opacity:1;fill-rule:evenodd;stroke:none"
           id="path185" /><path
           d="m 440.25,420.168 c -14.726,6.061 -27.929,13.294 -39.182,21.428 27.525,19.764 61.77,30.538 98.231,28.322 8.443,-0.515 16.682,-1.707 24.673,-3.52 -9.859,-11.723 -21.781,-21.772 -35.376,-29.622 -15.097,-8.713 -31.507,-14.282 -48.346,-16.608"
           style="fill:#3b6fa3;fill-opacity:1;fill-rule:evenodd;stroke:none"
           id="path187" /><path
           d="m 606.437,416.303 c -26.317,-24.301 -61.097,-39.367 -98.999,-40.462 -34.958,11.496 -61.661,44.11 -70.381,84.905 19.303,7.154 40.372,10.501 62.242,9.172 43.232,-2.63 81.161,-23.009 107.138,-53.615"
           style="fill:#447ab0;fill-opacity:1;fill-rule:evenodd;stroke:none"
           id="path189" /><path
           d="m 606.437,416.303 c -5.022,-4.637 -10.349,-8.934 -15.948,-12.864 -19.444,-3.013 -40.375,-4.043 -62.096,-2.723 -25.496,1.549 -49.522,6.175 -71.022,13.169 -9.556,13.447 -16.582,29.404 -20.314,46.861 19.303,7.154 40.372,10.501 62.242,9.172 43.232,-2.63 81.161,-23.009 107.138,-53.615"
           style="fill:#6497c9;fill-opacity:1;fill-rule:evenodd;stroke:none"
           id="path191" /><path
           d="m 451.907,422.314 c -6.79,11.511 -11.87,24.493 -14.85,38.432 19.303,7.154 40.372,10.501 62.242,9.172 8.443,-0.515 16.682,-1.707 24.673,-3.52 -9.859,-11.723 -21.781,-21.772 -35.376,-29.622 -11.587,-6.69 -23.952,-11.524 -36.689,-14.462"
           style="fill:#4f82b5;fill-opacity:1;fill-rule:evenodd;stroke:none"
           id="path193" /><path
           d="m 545.825,521.675 c -7.998,-32.55 -28.738,-61.917 -60.058,-79.998 -31.322,-18.081 -67.125,-21.354 -99.311,-12.001 7.997,32.55 28.739,61.917 60.058,79.998 31.322,18.079 67.125,21.353 99.311,12.001"
           style="fill:#cc3300;fill-opacity:1;fill-rule:evenodd;stroke:none"
           id="path195" /><path
           d="m 545.825,521.675 c -1.361,-5.54 -3.093,-10.988 -5.18,-16.303 -12.155,-11.055 -26.258,-21.413 -41.995,-30.497 -37.124,-21.43 -75.842,-31.484 -107.506,-30.168 10.067,26.442 28.957,49.717 55.37,64.967 31.322,18.079 67.125,21.353 99.311,12.001"
           style="fill:#e33900;fill-opacity:1;fill-rule:evenodd;stroke:none"
           id="path197" /><path
           d="m 545.825,521.675 c -7.137,-29.046 -24.421,-55.556 -50.313,-73.775 -29.642,-8.093 -63.262,2.324 -88.123,26.721 10.148,13.872 23.283,25.906 39.125,35.053 31.322,18.079 67.125,21.353 99.311,12.001"
           style="fill:#e33900;fill-opacity:1;fill-rule:evenodd;stroke:none"
           id="path199" /><path
           d="m 545.825,521.675 c -1.361,-5.54 -3.094,-10.988 -5.18,-16.304 -12.156,-11.055 -26.26,-21.412 -41.995,-30.496 -18.472,-10.663 -37.336,-18.506 -55.53,-23.537 -12.849,4.965 -25.094,12.842 -35.731,23.283 10.148,13.872 23.283,25.906 39.125,35.053 31.322,18.079 67.125,21.353 99.311,12.001"
           style="fill:#ff4000;fill-opacity:1;fill-rule:evenodd;stroke:none"
           id="path201" /></g></g></g></svg>
